<!DOCTYPE svg PUBLIC "-//W3C//DTD SVG 20010904//EN" "http://www.w3.org/TR/2001/REC-SVG-20010904/DTD/svg10.dtd">
<svg version="1.0" xmlns="http://www.w3.org/2000/svg" width="322px" height="322px" viewBox="0 0 3220 3220" preserveAspectRatio="xMidYMid meet">
<g id="layer101" fill="#000000" stroke="none">
 <path d="M0 1610 l0 -1610 1610 0 1610 0 0 1610 0 1610 -1610 0 -1610 0 0 -1610z"/>
 </g>
<g id="layer102" fill="#088c3f" stroke="none">
 <path d="M0 1610 l0 -1610 1610 0 1610 0 0 1610 0 1610 -1610 0 -1610 0 0 -1610z m1190 -700 l0 -300 100 0 100 0 0 300 0 300 200 0 200 0 0 -300 0 -300 100 0 100 0 0 300 0 300 200 0 200 0 0 -400 0 -400 -800 0 -800 0 0 400 0 400 200 0 200 0 0 -300z"/>
 </g>
<g id="layer103" fill="#ffe2ac" stroke="none">
 <path d="M1593 3213 l1597 -3 0 -800 0 -800 -1595 0 -1595 0 0 -805 0 -805 1610 0 1610 0 0 1610 0 1610 -1612 -2 -1613 -3 1598 -2z m-403 -2303 l0 -300 100 0 100 0 0 300 0 300 200 0 200 0 0 -300 0 -300 100 0 100 0 0 300 0 300 200 0 200 0 0 -400 0 -400 -800 0 -800 0 0 400 0 400 200 0 200 0 0 -300z"/>
 <path d="M990 2910 l0 -100 400 0 400 0 0 -100 0 -100 -400 0 -400 0 0 -300 0 -300 600 0 600 0 0 500 0 500 -600 0 -600 0 0 -100z m800 -600 l0 -100 -200 0 -200 0 0 100 0 100 200 0 200 0 0 -100z"/>
 </g>
<g id="layer104" fill="#fdfdfb" stroke="none">
 <path d="M1593 3213 l1597 -3 0 -1600 0 -1600 -1597 -3 -1598 -2 1613 -3 1612 -2 0 1610 0 1610 -1612 -2 -1613 -3 1598 -2z"/>
 <path d="M990 2910 l0 -100 400 0 400 0 0 -100 0 -100 -400 0 -400 0 0 -300 0 -300 600 0 600 0 0 500 0 500 -600 0 -600 0 0 -100z m800 -600 l0 -100 -200 0 -200 0 0 100 0 100 200 0 200 0 0 -100z"/>
 </g>

</svg>